<svg height="512" viewBox="0 0 64 64" width="512" xmlns="http://www.w3.org/2000/svg"><g id="Filled_outline" data-name="Filled outline"><path d="m3 3h58v52h-58z" fill="#195c85"/><path d="m3 3h34v44h-34z" fill="#87cee9"/><path d="m61 59-9 2h-40l-9-2v-4h58z" fill="#32b1cc"/><path d="m37 3h24v24h-24z" fill="#cfdfe8"/><path d="m37 27h24v20h-24z" fill="#394d5c"/><path d="m37 43h8v4h-8z" fill="#f7adb6"/><path d="m45 43h8v4h-8z" fill="#f98c96"/><path d="m37 39h8v4h-8z" fill="#f98c96"/><path d="m37 35h8v4h-8z" fill="#f7adb6"/><path d="m37 31h8v4h-8z" fill="#f98c96"/><path d="m53 39h8v4h-8z" fill="#f98c96"/><path d="m53 43h8v4h-8z" fill="#f7adb6"/><g fill="#f4f4e6"><circle cx="13" cy="13" r="2"/><circle cx="21" cy="13" r="2"/><circle cx="29" cy="13" r="2"/><circle cx="13" cy="21" r="2"/><circle cx="21" cy="21" r="2"/><circle cx="29" cy="21" r="2"/><circle cx="13" cy="29" r="2"/><circle cx="21" cy="29" r="2"/><circle cx="29" cy="29" r="2"/></g><circle cx="13" cy="36" fill="#dd3e46" r="2"/><circle cx="21" cy="36" fill="#dd3e46" r="2"/><circle cx="29" cy="36" fill="#dd3e46" r="2"/><path d="m24 42h2v2h-2z" fill="#32b1cc"/><path d="m24 6h2v2h-2z" fill="#32b1cc"/><path d="m6 32h2v2h-2z" fill="#32b1cc"/><path d="m23 47h4v4h-4z" fill="#fcf05a"/><path d="m32 55h-14l-2-4h18z" fill="#d3843d"/><path d="m45 47h4v4h-4z" fill="#fcf05a"/><path d="m54 55h-14l-2-4h18z" fill="#d3843d"/><path d="m61 2h-58a1 1 0 0 0 -1 1v56a1 1 0 0 0 .783.977l9 2a1.052 1.052 0 0 0 .217.023h40a1.052 1.052 0 0 0 .217-.023l9-2a1 1 0 0 0 .783-.977v-56a1 1 0 0 0 -1-1zm-23 30h6v2h-6zm10 16v2h-2v-2zm-2-2v-2h6v2zm8.382 6-1 2h-12.764l-1-2zm-16.382-16h6v2h-6zm0 4h6v2h-6zm0 4h6v2h-6zm6 4v2h-6a1 1 0 0 0 -.9 1.447l1.282 2.553h-4.764l1.282-2.553a1 1 0 0 0 -.9-1.447h-6v-2zm-11.618 4-1 2h-12.764l-1-2zm-8.382-2v-2h2v2zm-20-46h32v42h-32zm0 44h18v2h-6a1 1 0 0 0 -.895 1.447l1.277 2.553h-12.382zm56 10.2-8.11 1.8h-39.78l-8.11-1.8v-2.2h56zm0-4.2h-4.382l1.282-2.553a1 1 0 0 0 -.9-1.447h-6v-2h10zm0-8h-6v-2h6zm0-4h-6v-2h6zm0-4h-7a1 1 0 0 0 -1 1v3h-6v-11a1 1 0 0 0 -1-1h-7v-2h22zm0-12h-22v-22h22z"/><path d="m49 24a9 9 0 1 0 -9-9 9.01 9.01 0 0 0 9 9zm1-15.92a7 7 0 0 1 5.92 5.92h-2.02a5.016 5.016 0 0 0 -3.9-3.9zm0 4.1a3 3 0 0 1 1.816 1.82h-1.816zm0 3.82h1.816a3 3 0 0 1 -1.816 1.816zm0 3.9a5.016 5.016 0 0 0 3.9-3.9h2.02a7 7 0 0 1 -5.92 5.92zm-2-2.083a3 3 0 0 1 -1.816-1.817h1.816zm0-3.817h-1.816a3 3 0 0 1 1.816-1.816zm0-5.92v2.02a5.016 5.016 0 0 0 -3.9 3.9h-2.02a7 7 0 0 1 5.92-5.92zm-3.9 7.92a5.016 5.016 0 0 0 3.9 3.9v2.02a7 7 0 0 1 -5.92-5.92z"/><path d="m12 6h-6v6h2v-4h4z"/><path d="m32 42h-4v2h6v-4h-2z"/><path d="m13 10a3 3 0 1 0 3 3 3 3 0 0 0 -3-3zm0 4a1 1 0 1 1 1-1 1 1 0 0 1 -1 1z"/><path d="m21 16a3 3 0 1 0 -3-3 3 3 0 0 0 3 3zm0-4a1 1 0 1 1 -1 1 1 1 0 0 1 1-1z"/><path d="m29 16a3 3 0 1 0 -3-3 3 3 0 0 0 3 3zm0-4a1 1 0 1 1 -1 1 1 1 0 0 1 1-1z"/><path d="m13 18a3 3 0 1 0 3 3 3 3 0 0 0 -3-3zm0 4a1 1 0 1 1 1-1 1 1 0 0 1 -1 1z"/><path d="m21 24a3 3 0 1 0 -3-3 3 3 0 0 0 3 3zm0-4a1 1 0 1 1 -1 1 1 1 0 0 1 1-1z"/><path d="m29 24a3 3 0 1 0 -3-3 3 3 0 0 0 3 3zm0-4a1 1 0 1 1 -1 1 1 1 0 0 1 1-1z"/><path d="m13 26a3 3 0 1 0 3 3 3 3 0 0 0 -3-3zm0 4a1 1 0 1 1 1-1 1 1 0 0 1 -1 1z"/><path d="m21 32a3 3 0 1 0 -3-3 3 3 0 0 0 3 3zm0-4a1 1 0 1 1 -1 1 1 1 0 0 1 1-1z"/><path d="m29 32a3 3 0 1 0 -3-3 3 3 0 0 0 3 3zm0-4a1 1 0 1 1 -1 1 1 1 0 0 1 1-1z"/><path d="m13 33a3 3 0 1 0 3 3 3 3 0 0 0 -3-3zm0 4a1 1 0 1 1 1-1 1 1 0 0 1 -1 1z"/><path d="m24 36a3 3 0 1 0 -3 3 3 3 0 0 0 3-3zm-3 1a1 1 0 1 1 1-1 1 1 0 0 1 -1 1z"/><path d="m32 36a3 3 0 1 0 -3 3 3 3 0 0 0 3-3zm-4 0a1 1 0 1 1 1 1 1 1 0 0 1 -1-1z"/><path d="m24 42h2v2h-2z"/><path d="m24 6h2v2h-2z"/><path d="m6 32h2v2h-2z"/></g></svg>