<svg id="Capa_1" enable-background="new 0 0 512 512" height="512" viewBox="0 0 512 512" width="512" xmlns="http://www.w3.org/2000/svg"><g><g><g><g><path d="m439.85 185.289v141.423c0 16.737-13.568 30.305-30.305 30.305h-96.976v-202.033h96.976c16.737 0 30.305 13.568 30.305 30.305z" fill="#dd5790"/></g><g><path d="m409.545 154.984h-96.976v132.739c8.075 5.479 17.812 8.684 28.285 8.684 27.85 0 50.508-22.658 50.508-50.508h18.183c5.579 0 10.102 4.523 10.102 10.102v70.711c0 5.579-4.523 10.102-10.102 10.102h-96.976v20.203h96.976c16.737 0 30.305-13.568 30.305-30.305v-141.423c0-16.737-13.568-30.305-30.305-30.305z" fill="#d80a61"/></g><g><path d="m401.463 223.675h141.423v64.65h-141.423z" fill="#407093" transform="matrix(0 -1 1 0 216.175 728.175)"/></g><g><path d="m488.337 185.289v115.159c0 5.579-4.523 10.102-10.102 10.102h-38.385v16.163h64.65v-141.424z" fill="#365e7d"/></g><g><path d="m425.707 239.837h60.61v32.325h-60.61z" fill="#f4fbff" transform="matrix(0 -1 1 0 200.012 712.012)"/></g><g><path d="m342.874 185.289v141.423c0 16.737-13.568 30.305-30.305 30.305h-26.264c-16.737 0-30.305-13.568-30.305-30.305v-141.423c0-16.737 13.568-30.305 30.305-30.305h26.264c16.737 0 30.305 13.568 30.305 30.305z" fill="#df75a5"/></g><g><path d="m342.874 296.355v-111.066c0-16.737-13.568-30.305-30.305-30.305h-6.741c-9.619 10.731-15.483 24.895-15.483 40.406v50.508c0 27.85 22.658 50.508 50.508 50.508.678 0 1.35-.024 2.021-.051z" fill="#dd5790"/></g><g><path d="m409.545 154.984h-68.691c-16.737 0-30.305 13.568-30.305 30.305v60.61c0 16.737 13.568 30.305 30.305 30.305 16.737 0 30.305-13.568 30.305-30.305v-20.203h68.691v-40.407c0-16.737-13.568-30.305-30.305-30.305z" fill="#df75a5"/></g></g></g><g><g><g><path d="m72.15 185.289v141.423c0 16.737 13.568 30.305 30.305 30.305h96.976v-202.033h-96.976c-16.737 0-30.305 13.568-30.305 30.305z" fill="#75cef9"/></g><g><path d="m102.455 154.984c-16.737 0-30.305 13.568-30.305 30.305v60.61h48.488c0 19.476 11.087 36.4 27.274 44.825v35.988c0 5.579-4.523 10.102-10.102 10.102h-63.928c4.161 11.769 15.38 20.203 28.574 20.203h96.976v-202.033z" fill="#6bbef6"/></g><g><path d="m-30.886 223.675h141.423v64.65h-141.423z" fill="#407093" transform="matrix(0 -1 1 0 -216.175 295.825)"/></g><g><path d="m55.988 185.289v115.159c0 5.579-4.523 10.102-10.102 10.102h-38.386v16.163h64.65v-141.424z" fill="#365e7d"/></g><g><path d="m25.683 239.837h60.61v32.325h-60.61z" fill="#f4fbff" transform="matrix(0 -1 1 0 -200.012 311.988)"/></g><g><path d="m55.988 225.695h16.163v60.61h-16.163z" fill="#d3effb"/></g><g><path d="m169.126 185.289v141.423c0 16.737 13.568 30.305 30.305 30.305h26.264c16.737 0 30.305-13.568 30.305-30.305v-141.423c0-16.737-13.568-30.305-30.305-30.305h-26.264c-16.737 0-30.305 13.568-30.305 30.305z" fill="#b1e4f9"/></g><g><path d="m169.126 296.355v-111.066c0-16.737 13.568-30.305 30.305-30.305h6.741c9.619 10.731 15.483 24.895 15.483 40.406v50.508c0 27.85-22.658 50.508-50.508 50.508-.678 0-1.35-.024-2.021-.051z" fill="#90d8f9"/></g><g><path d="m102.455 154.984h68.691c16.737 0 30.305 13.568 30.305 30.305v60.61c0 16.737-13.568 30.305-30.305 30.305-16.737 0-30.305-13.568-30.305-30.305v-20.203h-68.691v-40.407c0-16.737 13.568-30.305 30.305-30.305z" fill="#b1e4f9"/></g></g></g><g><path d="m504.5 177.789h-57.9c-3.49-17.267-18.779-30.309-37.06-30.309l-123.235.004c-12.39 0-23.406 5.991-30.305 15.228-6.899-9.237-17.915-15.228-30.305-15.228l-74.765-.004c-4.142 0-7.5 3.358-7.5 7.5s3.358 7.5 7.5 7.5h20.142c.026 0 .051.004.077.004h.154c12.501.083 22.646 10.28 22.646 22.806v60.61c0 12.572-10.228 22.8-22.8 22.8-6.096 0-11.823-2.37-16.126-6.673-4.31-4.31-6.684-10.038-6.684-16.127l.001-44.449c0-4.142-3.358-7.5-7.5-7.5s-7.5 3.358-7.5 7.5v16.749h-20.78c-4.142 0-7.5 3.358-7.5 7.5s3.358 7.5 7.5 7.5h20.78v12.7c0 10.096 3.934 19.59 11.077 26.733 4.835 4.835 10.754 8.193 17.209 9.859v44.219c0 8.56 2.863 16.461 7.677 22.805h-66.848c-12.575 0-22.805-10.23-22.805-22.805v-141.421c0-12.578 10.232-22.81 22.81-22.81h13.47c4.142 0 7.5-3.358 7.5-7.5s-3.358-7.5-7.5-7.5h-13.47c-10.1 0-19.594 3.933-26.736 11.074-5.34 5.34-8.884 11.996-10.333 19.236h-11.581c-4.142 0-7.5 3.358-7.5 7.5s3.358 7.5 7.5 7.5h10.84v25.405h-24.825c-4.142 0-7.5 3.358-7.5 7.5v22.805h-17.325v-55.71h3.81c4.142 0 7.5-3.358 7.5-7.5s-3.358-7.5-7.5-7.5h-11.31c-4.142 0-7.5 3.358-7.5 7.5v141.42c0 4.142 3.358 7.5 7.5 7.5h57.9c3.488 17.266 18.776 30.306 37.055 30.306h123.24c12.39 0 23.406-5.991 30.305-15.228 6.899 9.237 17.915 15.228 30.305 15.228l72.405.004c4.142 0 7.5-3.358 7.5-7.5s-3.358-7.5-7.5-7.5h-16.016c4.816-6.345 7.68-14.247 7.68-22.809v-44.224c16.252-4.232 28.285-19.03 28.285-36.589v-12.703h20.784c4.142 0 7.5-3.358 7.5-7.5s-3.358-7.5-7.5-7.5h-20.784v-16.744c0-4.142-3.358-7.5-7.5-7.5s-7.5 3.358-7.5 7.5v24.244 20.203c0 12.575-10.23 22.805-22.805 22.805s-22.805-10.23-22.805-22.805v-60.61c0-12.575 10.23-22.805 22.805-22.805h68.691c12.575 0 22.805 10.23 22.805 22.805v.01 141.403.01.006c-.004 12.574-10.235 22.803-22.81 22.803h-15.83c-4.142 0-7.5 3.358-7.5 7.5s3.358 7.5 7.5 7.5h15.83c18.281 0 33.57-13.041 37.06-30.309h57.9c4.142 0 7.5-3.358 7.5-7.5v-141.422c0-4.143-3.358-7.5-7.5-7.5zm-457.175 55.406h17.325v45.609h-17.325zm-32.325 30.305h17.325v22.805c0 4.142 3.358 7.5 7.5 7.5h24.825v25.405h-49.65zm482-15h-17.325v-22.805c0-4.142-3.358-7.5-7.5-7.5h-24.825v-25.407h49.65zm-49.65-15.305h17.325v45.609h-17.325zm-221.655 116.321h-26.265c-12.575 0-22.805-10.23-22.805-22.805v-43.413c18.257-2.661 32.324-18.415 32.324-37.399v-60.61c0-8.56-2.863-16.462-7.675-22.806h24.42c12.575 0 22.805 10.23 22.805 22.805v141.423c.001 12.575-10.229 22.805-22.804 22.805zm109.679-66.215v43.41c0 12.575-10.23 22.805-22.805 22.805h-26.265c-12.575 0-22.805-10.23-22.805-22.805v-141.422c0-12.575 10.23-22.805 22.805-22.805h24.421c-4.814 6.344-7.677 14.245-7.677 22.805v60.61c.001 18.984 14.069 34.739 32.326 37.402zm111.976 35.91v-25.407h24.825c4.142 0 7.5-3.358 7.5-7.5v-22.804h17.325v55.711z"/><path d="m256 97.833c4.142 0 7.5-3.358 7.5-7.5v-40.406c0-4.142-3.358-7.5-7.5-7.5s-7.5 3.358-7.5 7.5v40.407c0 4.142 3.358 7.499 7.5 7.499z"/><path d="m287.315 99.854h7.703l-10.28 19.276c-1.949 3.655-.566 8.198 3.088 10.147 1.124.6 2.332.884 3.523.884 2.681 0 5.274-1.441 6.624-3.972l16.163-30.305c1.24-2.324 1.169-5.129-.187-7.388-1.355-2.259-3.797-3.641-6.431-3.641h-7.703l10.28-19.275c1.949-3.655.566-8.198-3.088-10.147-3.654-1.951-8.198-.567-10.147 3.088l-16.163 30.305c-1.24 2.324-1.169 5.129.187 7.388 1.355 2.257 3.797 3.64 6.431 3.64z"/><path d="m214.027 126.188c1.35 2.531 3.943 3.973 6.624 3.972 1.191 0 2.399-.285 3.523-.884 3.655-1.949 5.038-6.492 3.088-10.147l-10.28-19.276h7.703c2.634 0 5.076-1.382 6.431-3.641s1.426-5.064.187-7.388l-16.163-30.304c-1.949-3.656-6.493-5.039-10.147-3.088-3.655 1.949-5.038 6.492-3.088 10.147l10.28 19.275h-7.703c-2.634 0-5.076 1.382-6.431 3.641s-1.426 5.064-.187 7.388z"/><path d="m256 414.167c-4.142 0-7.5 3.358-7.5 7.5v40.407c0 4.142 3.358 7.5 7.5 7.5s7.5-3.358 7.5-7.5v-40.407c0-4.143-3.358-7.5-7.5-7.5z"/><path d="m297.973 385.812c-1.949-3.656-6.494-5.035-10.147-3.088-3.655 1.949-5.038 6.492-3.088 10.147l10.28 19.276h-7.703c-2.634 0-5.076 1.382-6.431 3.641s-1.426 5.064-.187 7.388l16.163 30.305c1.35 2.531 3.943 3.972 6.624 3.972 1.191 0 2.399-.284 3.523-.884 3.655-1.949 5.038-6.492 3.088-10.147l-10.28-19.275h7.703c2.634 0 5.076-1.382 6.431-3.641s1.426-5.064.187-7.388z"/><path d="m224.685 412.146h-7.703l10.28-19.276c1.949-3.655.566-8.198-3.088-10.147-3.655-1.951-8.198-.567-10.147 3.088l-16.163 30.305c-1.24 2.324-1.169 5.129.187 7.388 1.355 2.259 3.797 3.641 6.431 3.641h7.703l-10.28 19.275c-1.949 3.655-.566 8.198 3.088 10.147 1.124.6 2.332.884 3.523.884 2.681 0 5.274-1.441 6.624-3.972l16.163-30.305c1.24-2.324 1.169-5.129-.187-7.388-1.355-2.257-3.797-3.64-6.431-3.64z"/></g></g></svg>